<?xml version="1.0" encoding="utf-8"?>
<!-- Generator: Adobe Illustrator 21.0.0, SVG Export Plug-In . SVG Version: 6.00 Build 0)  -->
<svg version="1.0" id="Layer_1" xmlns="http://www.w3.org/2000/svg" xmlns:xlink="http://www.w3.org/1999/xlink" x="0px" y="0px"
	 viewBox="0 0 567.1 564.1" style="enable-background:new 0 0 567.1 564.1;" xml:space="preserve">
<style type="text/css">
	.st0{fill:#CCCCCB;}
</style>
<path class="st0" d="M533.5,10H33.6C20.6,10,10,21.7,10,36.2v262.2c0,14.5,10.6,27.3,23.6,27.3h499.9c13,0,23.6-12.8,23.6-27.3V36.2
	C557.1,21.7,546.5,10,533.5,10z M87.2,261.7H58.9V205h28.3V261.7z M87.2,100.7H58.9V44h28.3V100.7z M121.6,249.5
	c-1.6,0-2.8-1.3-2.8-2.8c0-1.6,1.3-2.8,2.8-2.8c1.6,0,2.8,1.3,2.8,2.8C124.4,248.2,123.2,249.5,121.6,249.5z M121.6,85.1
	c-1.6,0-2.8-1.3-2.8-2.8c0-1.6,1.3-2.8,2.8-2.8c1.6,0,2.8,1.3,2.8,2.8C124.4,83.8,123.2,85.1,121.6,85.1z M260.5,249.5
	c-1.6,0-2.8-1.3-2.8-2.8c0-1.6,1.3-2.8,2.8-2.8c1.6,0,2.8,1.3,2.8,2.8C263.3,248.2,262.1,249.5,260.5,249.5z M260.5,85.1
	c-1.6,0-2.8-1.3-2.8-2.8c0-1.6,1.3-2.8,2.8-2.8c1.6,0,2.8,1.3,2.8,2.8C263.3,83.8,262.1,85.1,260.5,85.1z M508.2,261.7h-28.3V205
	h28.3V261.7z M508.2,100.7h-28.3V44h28.3V100.7z"/>
<g>
	<path class="st0" d="M38.3,554.1H10v-56.7h28.3V393.1H10v-56.7h28.3l43.4,28.1c8.6,5.6,20.1,1.2,22.9-8.7l1.6-5.9l2.9-11l54.8,14.5
		l-2.9,11l139.5,37l2.9-11l54.8,14.5l-2.9,11c0,4.6-1.9,8.8-4.9,11.8c-3,3-7.2,4.9-11.8,4.9H182.8c-11.2,0-22,4.3-30.1,12.1
		L38.3,554.1z"/>
</g>
<path class="st0" d="M414.4,445.8c-8.1,7.8-18.9,12.1-30.2,12.1H228.4c-4.6,0-8.8,1.9-11.8,4.9c-3,3-4.9,7.2-4.9,11.8l-2.9,11
	l54.8,14.5l2.9-11l139.5,37l-2.9,11l54.8,14.5l2.9-11l1.6-5.9c2.8-9.9,14.3-14.3,22.9-8.7l43.4,28.1h28.3v-56.7h-28.3V393.1h28.3
	v-56.7h-28.3L414.4,445.8z M502,393.6c7,0,12.7,4.3,12.7,9.5v103.5c0,5.3-5.7,9.5-12.7,9.5h-6.4c-7,0-12.7-4.3-12.7-9.5V403.1
	c0-5.3,5.7-9.5,12.7-9.5H502z"/>
</svg>
