<?xml version="1.0" encoding="utf-8"?>
<!-- Generator: Adobe Illustrator 21.0.0, SVG Export Plug-In . SVG Version: 6.00 Build 0)  -->
<svg version="1.0" id="Layer_1" xmlns="http://www.w3.org/2000/svg" xmlns:xlink="http://www.w3.org/1999/xlink" x="0px" y="0px"
	 viewBox="0 0 567.1 382.8" style="enable-background:new 0 0 567.1 382.8;" xml:space="preserve">
<style type="text/css">
	.st0{fill:#CCCCCB;}
</style>
<path class="st0" d="M533.5,10H33.6C20.6,10,10,20.6,10,33.6v315.6c0,13,10.6,23.6,23.6,23.6h499.9c13,0,23.6-10.6,23.6-23.6V33.6
	C557.1,20.6,546.5,10,533.5,10z M27,358.7c-1.6,0-2.8-1.3-2.8-2.8c0-1.6,1.3-2.8,2.8-2.8c1.6,0,2.8,1.3,2.8,2.8
	C29.8,357.4,28.6,358.7,27,358.7z M27,29.8c-1.6,0-2.8-1.3-2.8-2.8c0-1.6,1.3-2.8,2.8-2.8c1.6,0,2.8,1.3,2.8,2.8
	C29.8,28.6,28.6,29.8,27,29.8z M517.4,333.2H49.7V52.5h467.7V333.2z M540.1,358.7c-1.6,0-2.8-1.3-2.8-2.8c0-1.6,1.3-2.8,2.8-2.8
	s2.8,1.3,2.8,2.8C542.9,357.4,541.6,358.7,540.1,358.7z M540.1,29.8c-1.6,0-2.8-1.3-2.8-2.8c0-1.6,1.3-2.8,2.8-2.8s2.8,1.3,2.8,2.8
	C542.9,28.6,541.6,29.8,540.1,29.8z"/>
</svg>
